<svg width="28" height="28" viewBox="0 0 28 28" fill="none" xmlns="http://www.w3.org/2000/svg">
<path fill-rule="evenodd" clip-rule="evenodd" d="M4.72803 6.43889C3.87829 7.83149 2.99167 10.1564 2.30217 12.8455C1.60141 15.5785 1.13084 18.5833 1.09402 21.1872C1.77047 22.0204 3.61191 23.6234 6.65463 24.3754L8.83033 21.6558C7.77893 21.2768 6.89417 20.7891 6.33869 20.2336C5.94817 19.8431 5.94817 19.2099 6.33869 18.8194C6.72921 18.4289 7.36237 18.4289 7.75291 18.8194C8.16127 19.2277 9.20923 19.7764 10.7567 20.1417L10.7698 20.1447C11.7345 20.3714 12.8384 20.5133 14 20.5133C15.1617 20.5133 16.2655 20.3714 17.2303 20.1447L17.2414 20.1421C18.7898 19.7768 19.8385 19.2279 20.247 18.8194C20.6376 18.4289 21.2708 18.4289 21.6612 18.8194C22.0518 19.2099 22.0518 19.8431 21.6612 20.2336C21.1058 20.7891 20.221 21.2768 19.1697 21.6558L21.3454 24.3754C24.3882 23.6234 26.2296 22.0204 26.906 21.1872C26.8692 18.5833 26.3986 15.5784 25.6978 12.8455C25.0084 10.1564 24.1218 7.83149 23.272 6.43889L23.2126 6.42067C22.9484 6.34143 22.4934 6.22611 21.7832 6.10775C20.3612 5.87075 17.9348 5.62463 14 5.62463C10.0652 5.62463 7.63879 5.87075 6.21679 6.10775C5.50665 6.22611 5.05165 6.34143 4.78749 6.42067L4.72803 6.43889ZM4.06549 5.61807C3.61829 4.72365 3.61899 4.72329 3.61971 4.72295L3.62423 4.72071L3.63087 4.71747L3.64631 4.71009L3.68611 4.69201C3.71673 4.67849 3.75571 4.66215 3.80395 4.64339C3.90037 4.60589 4.03421 4.55859 4.21279 4.50503C4.56951 4.39801 5.10797 4.26497 5.88801 4.13495C7.44637 3.87523 9.98723 3.62463 14 3.62463C18.0128 3.62463 20.5538 3.87523 22.112 4.13495C22.892 4.26497 23.4306 4.39801 23.7872 4.50503C23.9658 4.55859 24.0996 4.60589 24.1962 4.64339C24.2444 4.66215 24.2834 4.67849 24.314 4.69201L24.3538 4.71009L24.3692 4.71747L24.3758 4.72071L24.379 4.72221C24.3796 4.72255 24.3818 4.72365 23.9346 5.61807M9.08949 15.0558C10.1941 15.0558 11.0895 14.1604 11.0895 13.0558C11.0895 11.9512 10.1941 11.0558 9.08949 11.0558C7.98493 11.0558 7.08949 11.9512 7.08949 13.0558C7.08949 14.1604 7.98493 15.0558 9.08949 15.0558ZM20.9106 13.0558C20.9106 14.1604 20.0151 15.0558 18.9105 15.0558C17.806 15.0558 16.9105 14.1604 16.9105 13.0558C16.9105 11.9512 17.806 11.0558 18.9105 11.0558C20.0151 11.0558 20.9106 11.9512 20.9106 13.0558Z" fill="white"/>
</svg>
