<svg width="20" height="20" viewBox="0 0 20 20" fill="none" xmlns="http://www.w3.org/2000/svg">
<g clip-path="url(#clip0_143_773)">
<path d="M11.4286 9.99999C11.4353 8.26804 11.8917 6.56751 12.7532 5.06497C13.6146 3.56242 14.8516 2.30938 16.3428 1.42856C15.237 0.970729 14.0539 0.728292 12.8571 0.714279C10.3944 0.714279 8.03254 1.69259 6.29114 3.43401C4.54973 5.17541 3.57141 7.53727 3.57141 9.99999C3.57141 12.4627 4.54973 14.8246 6.29114 16.566C8.03254 18.3074 10.3944 19.2857 12.8571 19.2857C14.0684 19.2771 15.2666 19.0346 16.3857 18.5714C14.8864 17.696 13.641 16.4453 12.7718 14.9423C11.9026 13.4394 11.4397 11.7361 11.4286 9.99999Z" stroke="white" stroke-width="2" stroke-linecap="round" stroke-linejoin="round"/>
</g>
<defs>
<clipPath id="clip0_143_773">
<rect width="20" height="20" fill="white"/>
</clipPath>
</defs>
</svg>
